<svg xmlns="http://www.w3.org/2000/svg" width="40" height="40" viewBox="0 0 40 40">
    <g fill="none" fill-rule="evenodd">
        <path fill="#FFF" d="M0 0H40V40H0z"/>
        <path fill="#000" fill-rule="nonzero" d="M20.884 20l6.933-6.933c.244-.244.244-.64 0-.884s-.64-.244-.884 0L20 19.116l-6.933-6.933c-.244-.244-.64-.244-.884 0s-.244.64 0 .884L19.116 20l-6.933 6.933c-.244.244-.244.64 0 .884.122.122.282.183.442.183.16 0 .32-.061.442-.183L20 20.884l6.933 6.933c.122.122.282.183.442.183.16 0 .32-.061.442-.183.244-.244.244-.64 0-.884L20.884 20z"/>
    </g>
</svg>
